<svg xmlns="http://www.w3.org/2000/svg" xmlns:xlink="http://www.w3.org/1999/xlink" width="500" zoomAndPan="magnify" viewBox="0 0 375 374.999991" height="500" preserveAspectRatio="xMidYMid meet" version="1.0"><defs><g/><clipPath id="2fdcbc18b0"><path d="M 81.066406 53.261719 L 294 53.261719 L 294 265.511719 L 81.066406 265.511719 Z M 81.066406 53.261719 " clip-rule="nonzero"/></clipPath></defs><g clip-path="url(#2fdcbc18b0)"><path fill="#edf2fb" d="M 206.085938 201.277344 C 210.257812 182.515625 228.296875 165.367188 232.082031 152.605469 C 237.441406 134.652344 230.125 124.441406 218 118.398438 C 235.570312 122.183594 241.910156 133.96875 239.867188 151.667969 C 243.527344 153.539062 246.292969 156.5625 248.972656 159.667969 C 251.3125 150.011719 248.929688 140.734375 240.804688 131.929688 C 245.226562 131.164062 249.609375 130.992188 254.035156 131.121094 C 249.058594 122.398438 240.292969 116.613281 226.636719 114.824219 C 228.804688 112.144531 231.996094 110.230469 235.570312 108.613281 C 226.335938 106.144531 216.933594 104.570312 207.023438 106.65625 C 209.488281 103.464844 212.679688 100.785156 216.636719 98.660156 C 201.621094 97.59375 189.367188 100.316406 179.792969 106.65625 C 187.707031 95.933594 198.300781 87 210.128906 78.917969 C 183.921875 86.148438 157.882812 108.699219 128.570312 120.652344 L 138.183594 126.226562 C 128.144531 133.503906 117.167969 139.542969 103.640625 142.011719 C 114.871094 160.007812 130.910156 164.730469 148.652344 162.730469 C 134.015625 156.050781 134.101562 144.480469 173.285156 146.4375 C 189.878906 136.523438 185.15625 126.824219 167.625 121.800781 C 192.601562 114.1875 207.789062 116.3125 208.597656 132.820312 C 205.152344 121.675781 193.792969 119.460938 181.367188 123.078125 L 184.515625 125.886719 C 198.257812 121.84375 208.554688 130.566406 200.8125 146.4375 C 182.816406 183.492188 141.589844 195.617188 151.628906 259.816406 C 160.519531 263.007812 169.921875 265.007812 179.707031 265.6875 C 166.734375 242.503906 169.625 217.910156 187.921875 192.042969 C 175.027344 228.929688 187.367188 251.179688 206.640625 264.285156 C 222.167969 261.476562 236.546875 255.265625 248.929688 246.5 C 216.550781 253.863281 200.9375 224.503906 206.085938 201.277344 Z M 114.785156 146.179688 L 119.59375 144.605469 C 119.421875 147.117188 119.933594 149.328125 120.910156 151.371094 C 118.699219 149.796875 116.574219 148.136719 114.785156 146.179688 Z M 145.332031 123.460938 L 156.90625 118.953125 L 149.375 126.441406 Z M 170.730469 138.691406 C 175.539062 136.652344 176.601562 133.078125 174.601562 128.355469 C 181.539062 132.394531 180.730469 137.628906 172.859375 142.4375 C 167.328125 141.757812 161.925781 141.839844 156.648438 142.394531 C 160.691406 140.4375 165.242188 139.074219 170.730469 138.691406 Z M 293.855469 159.625 C 293.855469 186.980469 283.558594 211.914062 266.585938 230.757812 C 226.761719 249.4375 199.238281 210.125 229.828125 172.644531 C 222.464844 211.0625 259.992188 214.976562 282.328125 185.703125 C 287.21875 168.558594 287.984375 152.265625 283.730469 137.035156 C 285.644531 152.773438 283.644531 167.921875 278.15625 182.554688 C 273.433594 188.003906 267.988281 191.703125 262.074219 194.339844 C 269.476562 181.621094 273.734375 166.773438 273.734375 151.03125 C 273.773438 103.378906 235.144531 64.792969 187.496094 64.792969 C 139.84375 64.792969 101.214844 103.378906 101.214844 151.074219 C 101.214844 167.28125 105.679688 182.472656 113.464844 195.40625 C 110.957031 198.9375 108.957031 202.808594 107.636719 207.191406 C 98.574219 198.722656 93.769531 187.960938 89.898438 176.683594 C 92.363281 194.171875 98.917969 209.148438 110.742188 220.761719 C 114.148438 208.167969 121.761719 197.914062 130.996094 189.066406 L 131.121094 205.019531 L 148.097656 200.382812 C 138.949219 214.847656 132.867188 231.652344 134.441406 251.820312 C 102.574219 233.484375 81.132812 199.0625 81.132812 159.625 C 81.132812 100.871094 128.742188 53.261719 187.496094 53.261719 C 246.25 53.261719 293.855469 100.871094 293.855469 159.625 Z M 192.8125 131.203125 C 198.9375 134.183594 196.726562 143.796875 189.707031 153.199219 L 179.324219 156.519531 L 179.113281 153.625 C 188.304688 146.394531 194.214844 139.375 192.8125 131.203125 Z M 175.667969 161.496094 L 184.261719 159.453125 C 180.175781 163.496094 175.792969 167.75 171.371094 172.261719 L 159.628906 173.664062 L 159.289062 167.496094 C 165.03125 163.667969 170.519531 160.050781 175.328125 156.5625 Z M 154.90625 170.390625 L 154.863281 179.066406 L 166.007812 177.835938 C 161.628906 182.515625 157.332031 187.492188 153.375 192.765625 L 136.058594 197.0625 L 135.800781 184.769531 C 141.886719 179.492188 148.480469 174.769531 154.90625 170.390625 Z M 179.667969 77.472656 C 175.453125 82.195312 171.328125 87.171875 167.964844 94.746094 C 162.308594 97.933594 156.648438 101.890625 151.035156 104.1875 C 158.265625 94.402344 166.945312 85.085938 179.667969 77.472656 Z M 179.667969 77.472656 " fill-opacity="1" fill-rule="evenodd"/></g><g fill="#edf2fb" fill-opacity="1"><g transform="translate(147.47645, 303.68163)"><g><path d="M 16.328125 0.140625 C 16.148438 0.140625 15.945312 0.128906 15.71875 0.109375 C 15.5 0.0976562 15.34375 0.0859375 15.25 0.078125 C 14.875 0.0234375 14.53125 0 14.21875 0 L 1.421875 0 L 1.359375 -0.625 L 12.453125 -16.34375 L 13.53125 -17.890625 L 7.75 -17.890625 C 7.070312 -17.890625 6.53125 -17.863281 6.125 -17.8125 C 5.726562 -17.757812 5.347656 -17.613281 4.984375 -17.375 C 4.628906 -17.132812 4.3125 -16.753906 4.03125 -16.234375 L 3.71875 -15.671875 C 3.414062 -15.085938 3.128906 -14.59375 2.859375 -14.1875 C 2.609375 -14.1875 2.351562 -14.203125 2.09375 -14.234375 L 2.484375 -19.03125 L 2.953125 -19.03125 L 17.34375 -19.015625 C 17.46875 -18.960938 17.53125 -18.816406 17.53125 -18.578125 L 17.515625 -18.1875 L 6.640625 -2.890625 L 6.359375 -2.5 C 5.953125 -1.925781 5.6875 -1.523438 5.5625 -1.296875 C 6.03125 -1.148438 6.46875 -1.078125 6.875 -1.078125 L 8.90625 -1.078125 C 9.789062 -1.078125 10.578125 -1.09375 11.265625 -1.125 C 11.960938 -1.164062 12.632812 -1.238281 13.28125 -1.34375 C 13.84375 -1.425781 14.269531 -1.582031 14.5625 -1.8125 C 14.863281 -2.050781 15.15625 -2.4375 15.4375 -2.96875 C 15.988281 -4 16.503906 -4.757812 16.984375 -5.25 L 17.796875 -5.21875 L 16.921875 0.140625 Z M 16.328125 0.140625 "/></g></g></g><g fill="#edf2fb" fill-opacity="1"><g transform="translate(167.811446, 303.68163)"><g><path d="M 10.09375 -18.25 C 9.6875 -18.101562 9.171875 -17.96875 8.546875 -17.84375 C 8.015625 -17.738281 7.632812 -17.617188 7.40625 -17.484375 C 7.175781 -17.359375 7 -17.109375 6.875 -16.734375 C 6.757812 -16.359375 6.703125 -15.757812 6.703125 -14.9375 L 6.703125 -8.703125 C 6.703125 -6.359375 7.175781 -4.519531 8.125 -3.1875 C 9.070312 -1.863281 10.6875 -1.203125 12.96875 -1.203125 C 17.144531 -1.203125 19.234375 -3.785156 19.234375 -8.953125 L 19.234375 -14.6875 C 19.234375 -15.550781 19.171875 -16.179688 19.046875 -16.578125 C 18.921875 -16.984375 18.734375 -17.257812 18.484375 -17.40625 C 18.234375 -17.5625 17.8125 -17.710938 17.21875 -17.859375 C 16.65625 -18.003906 16.191406 -18.140625 15.828125 -18.265625 L 15.828125 -19.015625 L 23.703125 -19.015625 L 23.734375 -18.25 C 23.585938 -18.175781 23.425781 -18.113281 23.25 -18.0625 C 23.082031 -18.019531 22.859375 -17.976562 22.578125 -17.9375 C 22.203125 -17.863281 21.898438 -17.796875 21.671875 -17.734375 C 21.453125 -17.671875 21.25 -17.5625 21.0625 -17.40625 C 20.875 -17.257812 20.738281 -17.054688 20.65625 -16.796875 C 20.5 -16.253906 20.421875 -15.628906 20.421875 -14.921875 C 20.421875 -14.453125 20.429688 -13.710938 20.453125 -12.703125 C 20.472656 -11.691406 20.484375 -10.929688 20.484375 -10.421875 C 20.484375 -8.203125 20.289062 -6.328125 19.90625 -4.796875 C 19.519531 -3.273438 18.707031 -2.03125 17.46875 -1.0625 C 16.226562 -0.101562 14.398438 0.375 11.984375 0.375 C 10.585938 0.375 9.285156 0.15625 8.078125 -0.28125 C 6.867188 -0.726562 5.867188 -1.414062 5.078125 -2.34375 C 4.285156 -3.28125 3.816406 -4.453125 3.671875 -5.859375 C 3.546875 -6.867188 3.484375 -8.148438 3.484375 -9.703125 C 3.484375 -10.597656 3.5 -11.484375 3.53125 -12.359375 C 3.550781 -13.523438 3.5625 -14.390625 3.5625 -14.953125 C 3.5625 -15.671875 3.515625 -16.226562 3.421875 -16.625 C 3.316406 -17.019531 3.070312 -17.3125 2.6875 -17.5 C 2.3125 -17.695312 1.796875 -17.878906 1.140625 -18.046875 C 0.816406 -18.140625 0.5625 -18.210938 0.375 -18.265625 L 0.421875 -19.015625 L 10.0625 -19.015625 Z M 10.09375 -18.25 "/></g></g></g><g fill="#edf2fb" fill-opacity="1"><g transform="translate(193.021817, 303.68163)"><g><path d="M 8.71875 -10.59375 L 15.375 -17.203125 C 15.414062 -17.316406 15.4375 -17.421875 15.4375 -17.515625 C 15.4375 -17.796875 15.316406 -17.976562 15.078125 -18.0625 C 14.847656 -18.144531 14.492188 -18.210938 14.015625 -18.265625 C 13.640625 -18.304688 13.359375 -18.351562 13.171875 -18.40625 C 12.992188 -18.46875 12.90625 -18.582031 12.90625 -18.75 C 12.90625 -18.78125 12.929688 -18.867188 12.984375 -19.015625 L 21.21875 -19.015625 L 21.28125 -18.75 C 21.28125 -18.625 21.09375 -18.5 20.71875 -18.375 C 20.351562 -18.25 19.847656 -18.113281 19.203125 -17.96875 C 18.265625 -17.769531 17.570312 -17.484375 17.125 -17.109375 L 11.46875 -11.296875 L 18.296875 -1.890625 C 18.421875 -1.753906 18.632812 -1.625 18.9375 -1.5 C 19.25 -1.382812 19.664062 -1.242188 20.1875 -1.078125 C 20.726562 -0.910156 21.140625 -0.765625 21.421875 -0.640625 C 21.710938 -0.515625 21.859375 -0.390625 21.859375 -0.265625 C 21.859375 -0.160156 21.835938 -0.0703125 21.796875 0 L 11.8125 0 C 11.75 -0.125 11.71875 -0.207031 11.71875 -0.25 C 11.71875 -0.394531 11.804688 -0.5 11.984375 -0.5625 C 12.171875 -0.625 12.457031 -0.6875 12.84375 -0.75 C 13.3125 -0.8125 13.664062 -0.890625 13.90625 -0.984375 C 14.144531 -1.078125 14.265625 -1.242188 14.265625 -1.484375 C 14.265625 -1.585938 14.179688 -1.742188 14.015625 -1.953125 L 8.78125 -9.640625 L 7.46875 -9.640625 L 7.46875 -1.8125 C 7.46875 -1.507812 7.566406 -1.28125 7.765625 -1.125 C 7.960938 -0.976562 8.203125 -0.882812 8.484375 -0.84375 C 8.765625 -0.800781 9.125 -0.769531 9.5625 -0.75 C 10.039062 -0.71875 10.382812 -0.675781 10.59375 -0.625 C 10.8125 -0.570312 10.921875 -0.457031 10.921875 -0.28125 C 10.921875 -0.257812 10.894531 -0.164062 10.84375 0 L 1.0625 0 C 1.019531 -0.113281 1 -0.195312 1 -0.25 C 1 -0.414062 1.109375 -0.53125 1.328125 -0.59375 C 1.546875 -0.65625 1.875 -0.710938 2.3125 -0.765625 C 2.738281 -0.816406 3.082031 -0.867188 3.34375 -0.921875 C 3.601562 -0.984375 3.832031 -1.09375 4.03125 -1.25 C 4.226562 -1.40625 4.328125 -1.617188 4.328125 -1.890625 L 4.328125 -17.03125 C 4.328125 -17.40625 4.144531 -17.671875 3.78125 -17.828125 C 3.414062 -17.984375 2.910156 -18.109375 2.265625 -18.203125 C 1.816406 -18.285156 1.492188 -18.359375 1.296875 -18.421875 C 1.097656 -18.492188 1 -18.601562 1 -18.75 C 1 -18.78125 1.019531 -18.867188 1.0625 -19.015625 L 10.796875 -19.015625 C 10.828125 -18.890625 10.84375 -18.804688 10.84375 -18.765625 C 10.84375 -18.597656 10.734375 -18.476562 10.515625 -18.40625 C 10.304688 -18.34375 9.972656 -18.273438 9.515625 -18.203125 C 9.078125 -18.140625 8.722656 -18.070312 8.453125 -18 C 8.179688 -17.9375 7.945312 -17.828125 7.75 -17.671875 C 7.5625 -17.515625 7.46875 -17.300781 7.46875 -17.03125 L 7.46875 -10.59375 Z M 8.71875 -10.59375 "/></g></g></g><g fill="#edf2fb" fill-opacity="1"><g transform="translate(215.721515, 303.68163)"><g><path d="M 7.4375 -3.796875 C 7.4375 -3.054688 7.5 -2.507812 7.625 -2.15625 C 7.757812 -1.8125 7.941406 -1.578125 8.171875 -1.453125 C 8.398438 -1.335938 8.765625 -1.238281 9.265625 -1.15625 C 9.835938 -1.050781 10.347656 -0.925781 10.796875 -0.78125 L 10.765625 0 L 1.046875 0 L 1.046875 -0.765625 C 1.328125 -0.890625 1.582031 -0.976562 1.8125 -1.03125 C 2.039062 -1.082031 2.332031 -1.140625 2.6875 -1.203125 C 3.125 -1.253906 3.441406 -1.335938 3.640625 -1.453125 C 3.847656 -1.566406 4.007812 -1.816406 4.125 -2.203125 C 4.238281 -2.597656 4.296875 -3.21875 4.296875 -4.0625 L 4.296875 -15.046875 C 4.296875 -15.835938 4.226562 -16.421875 4.09375 -16.796875 C 3.957031 -17.179688 3.78125 -17.425781 3.5625 -17.53125 C 3.34375 -17.644531 3.015625 -17.726562 2.578125 -17.78125 C 2.234375 -17.84375 1.945312 -17.898438 1.71875 -17.953125 C 1.488281 -18.015625 1.25 -18.117188 1 -18.265625 L 1.015625 -19.015625 L 10.703125 -19.015625 L 10.734375 -18.25 C 10.523438 -18.175781 10.234375 -18.09375 9.859375 -18 C 9.316406 -17.863281 8.882812 -17.726562 8.5625 -17.59375 C 8.25 -17.457031 7.984375 -17.242188 7.765625 -16.953125 C 7.546875 -16.671875 7.4375 -16.28125 7.4375 -15.78125 Z M 7.4375 -3.796875 "/></g></g></g><g fill="#edf2fb" fill-opacity="1"><g transform="translate(166.857831, 319.739199)"><g><path d="M 1.59375 0 L 0.921875 0 L 0.921875 -6.109375 L 1.984375 -6.109375 L 3.84375 -0.9375 L 3.9375 -0.9375 L 5.78125 -6.109375 L 6.8125 -6.109375 L 6.8125 0 L 6.125 0 L 6.125 -4.984375 L 6.03125 -5 L 4.21875 0 L 3.5 0 L 1.6875 -5 L 1.59375 -4.984375 Z M 1.59375 0 "/></g></g></g><g fill="#edf2fb" fill-opacity="1"><g transform="translate(176.890232, 319.739199)"><g><path d="M 5.5 0 L 4.734375 0 L 4.171875 -1.671875 L 1.5625 -1.671875 L 1 0 L 0.25 0 L 2.375 -6.109375 L 3.375 -6.109375 Z M 2.8125 -5.375 L 1.765625 -2.28125 L 3.96875 -2.28125 L 2.921875 -5.375 Z M 2.8125 -5.375 "/></g></g></g><g fill="#edf2fb" fill-opacity="1"><g transform="translate(184.928579, 319.739199)"><g><path d="M 1.625 0 L 0.921875 0 L 0.921875 -6.109375 L 1.8125 -6.109375 L 4.78125 -1.4375 L 4.890625 -1.453125 L 4.890625 -6.109375 L 5.59375 -6.109375 L 5.59375 0 L 4.84375 0 L 1.734375 -5 L 1.625 -4.984375 Z M 1.625 0 "/></g></g></g><g fill="#edf2fb" fill-opacity="1"><g transform="translate(193.740302, 319.739199)"><g><path d="M 3.21875 0.09375 C 2.707031 0.09375 2.253906 -0.0195312 1.859375 -0.25 C 1.460938 -0.488281 1.15625 -0.84375 0.9375 -1.3125 C 0.71875 -1.789062 0.609375 -2.375 0.609375 -3.0625 C 0.609375 -3.738281 0.722656 -4.3125 0.953125 -4.78125 C 1.191406 -5.257812 1.519531 -5.613281 1.9375 -5.84375 C 2.363281 -6.082031 2.847656 -6.203125 3.390625 -6.203125 C 3.972656 -6.203125 4.453125 -6.09375 4.828125 -5.875 C 5.203125 -5.664062 5.46875 -5.351562 5.625 -4.9375 L 5.15625 -4.671875 L 5.0625 -4.671875 C 4.90625 -4.984375 4.691406 -5.207031 4.421875 -5.34375 C 4.148438 -5.488281 3.804688 -5.5625 3.390625 -5.5625 C 2.046875 -5.5625 1.375 -4.726562 1.375 -3.0625 C 1.375 -2.1875 1.539062 -1.550781 1.875 -1.15625 C 2.21875 -0.757812 2.691406 -0.5625 3.296875 -0.5625 C 3.859375 -0.5625 4.273438 -0.6875 4.546875 -0.9375 C 4.828125 -1.195312 4.96875 -1.597656 4.96875 -2.140625 L 4.96875 -2.6875 L 3.234375 -2.6875 L 3.234375 -3.25 L 5.671875 -3.25 L 5.671875 0 L 5 0 L 5 -0.8125 L 4.921875 -0.84375 C 4.753906 -0.53125 4.523438 -0.296875 4.234375 -0.140625 C 3.953125 0.015625 3.613281 0.09375 3.21875 0.09375 Z M 3.21875 0.09375 "/></g></g></g><g fill="#edf2fb" fill-opacity="1"><g transform="translate(202.388988, 319.739199)"><g><path d="M 5.5 0 L 4.734375 0 L 4.171875 -1.671875 L 1.5625 -1.671875 L 1 0 L 0.25 0 L 2.375 -6.109375 L 3.375 -6.109375 Z M 2.8125 -5.375 L 1.765625 -2.28125 L 3.96875 -2.28125 L 2.921875 -5.375 Z M 2.8125 -5.375 "/></g></g></g></svg>